 http://img221.imageshack.us/img221/4638/grifftheinvisible2010.jpg

Country.......: Australia
Genre.........: Comedy, Romance, Drama
Date release..: 10.09.2010 [World]
Director......: Leon Ford
Writers.......: Leon Ford
Duration......: 89 min.
More..........: http://www.imdb.com/title/tt1509803
Trailer.......: http://www.imdb.com/video/imdb/vi3481443353
Trailer.......:

Pilot :
Griff, office worker by day, superhero by night, has his world turned upside down when he meets Melody, a beautiful young scientist who shares his passion for the impossible. 

Cats :
Ryan Kwanten   	 ...  	Griff
Maeve Dermody 	... 	Melody
Marshall Napier 	... 	Benson
Heather Mitchell 	... 	Bronwyn
Patrick Brammall 	... 	Tim
Chan Griffin 	... 	Top Hat
Toby Schmitz 	... 	Tony
Kate Mulvany 	... 	Cecilia
Anthony Phelan 	... 	Detective Stone
Kelly Paterniti 	... 	Gina
David Webb 	... 	Gary 

Data Technical :
!!! SAMPLE !!!
Audio.....: English
Subtitles.: None
Format                           : AVI
Format/Info                      : Audio Video Interleave
File size                        : 1.37 GiB
Duration                         : 1h 28mn
Overall bit rate                 : 2 206 Kbps
Writing library                  : VirtualDub build 32706/release
Video
ID                               : 0
Format                           : MPEG-4 Visual
Format profile                   : Advanced Simple@L5
Format settings, BVOP            : Yes
Format settings, QPel            : No
Format settings, GMC             : No warppoints
Format settings, Matrix          : Default (H.263)
Muxing mode                      : Packed bitstream
Codec ID                         : XVID
Codec ID/Hint                    : XviD
Duration                         : 1h 28mn
Bit rate                         : 1 748 Kbps
Width                            : 720 pixels
Height                           : 384 pixels
Display aspect ratio             : 1.875
Frame rate                       : 25.000 fps
Color space                      : YUV
Chroma subsampling               : 4:2:0
Bit depth                        : 8 bits
Scan type                        : Progressive
Bits/(Pixel*Frame)               : 0.253
Stream size                      : 1.09 GiB (79%)
Writing library                  : XviD 64
Audio
ID                               : 1
Format                           : AC-3
Format/Info                      : Audio Coding 3
Mode extension                   : CM (complete main)
Codec ID                         : 2000
Duration                         : 1h 28mn
Bit rate mode                    : Constant
Bit rate                         : 448 Kbps
Channel(s)                       : 6 channels
Channel positions                : Front: L C R, Side: L R, LFE
Sampling rate                    : 48.0 KHz
Bit depth                        : 16 bits
Stream size                      : 285 MiB (20%)
Alignment                        : Aligned on interleaves
Interleave, duration             : 40 ms (1.00 video frame)
Interleave, preload duration     : 512 ms

Screen : 
http://img685.imageshack.us/img685/249/grifftheinvisible2010s1.jpg 
http://img220.imageshack.us/img220/6062/grifftheinvisible2010s2.jpg 
http://img833.imageshack.us/img833/4400/grifftheinvisible2010s3.jpg 
http://img9.imageshack.us/img9/1842/grifftheinvisible2010s4.jpg 
http://img718.imageshack.us/img718/2923/grifftheinvisible2010s5.jpg